<svg id="Layer_1" data-name="Layer 1" xmlns="http://www.w3.org/2000/svg" viewBox="0 0 719.2 139.4"><defs><style>.cls-1{fill:#f9f9f9;}.cls-2{fill:none;stroke:#049fd9;stroke-miterlimit:10;stroke-width:0.75px;}.cls-3{isolation:isolate;}</style></defs><title>am-logo-off-white</title><rect class="cls-1" x="54.1" y="84.1" width="8.4" height="33.1"/><path class="cls-1" d="M137.1,239.5a14.2,14.2,0,0,0-7-1.8c-5.4,0-9.2,3.8-9.2,8.8s3.6,8.8,9.2,8.8a14.2,14.2,0,0,0,7-1.8v8.9a26.57,26.57,0,0,1-7.6,1.2c-9.4,0-17.7-6.5-17.7-17.2,0-9.9,7.5-17.2,17.7-17.2a26.6,26.6,0,0,1,7.6,1.2Z" transform="translate(-7 -145.9)"/><path class="cls-1" d="M49.6,239.5a13.79,13.79,0,0,0-7-1.8c-5.4,0-9.2,3.8-9.2,8.8s3.6,8.8,9.2,8.8a14.2,14.2,0,0,0,7-1.8v8.9a25.86,25.86,0,0,1-7.6,1.2c-9.4,0-17.7-6.5-17.7-17.2,0-9.9,7.5-17.2,17.7-17.2a26.6,26.6,0,0,1,7.6,1.2Z" transform="translate(-7 -145.9)"/><path class="cls-1" d="M181,246.5a17.5,17.5,0,1,1-17.5-17.2C173.6,229.4,181,237,181,246.5Zm-17.6-8.6a8.7,8.7,0,1,0,8.7,8.7A8.58,8.58,0,0,0,163.4,237.9Z" transform="translate(-7 -145.9)"/><path class="cls-1" d="M101.3,237.5a32,32,0,0,0-6.5-1c-3.4,0-5.2,1.1-5.2,2.7,0,2,2.4,2.7,3.9,3.2l2.3.7c5.4,1.7,7.9,5.5,7.9,9.5,0,8.3-7.3,11.1-13.8,11.1a50.64,50.64,0,0,1-9.1-.9v-7.6a30.48,30.48,0,0,0,7.9,1.2c4.2,0,6.1-1.2,6.1-3.1,0-1.7-1.6-2.6-3.7-3.3-.5-.2-1.3-.4-1.8-.6-4.7-1.5-8.6-4.2-8.6-9.7,0-6.2,4.7-10.4,12.4-10.4a33.53,33.53,0,0,1,8.2,1.1v7.1Z" transform="translate(-7 -145.9)"/><path class="cls-1" d="M15.4,194.4a4.14,4.14,0,0,0-4.2-4.1A4.08,4.08,0,0,0,7,194.4v8.7a4.2,4.2,0,0,0,8.4,0Z" transform="translate(-7 -145.9)"/><path class="cls-1" d="M38.3,182.9a4.2,4.2,0,1,0-8.4,0V203a4.2,4.2,0,0,0,8.4,0Z" transform="translate(-7 -145.9)"/><path class="cls-1" d="M61.1,167.4a4.14,4.14,0,0,0-4.2-4.1,4.21,4.21,0,0,0-4.2,4.1v44a4.2,4.2,0,0,0,8.4,0Z" transform="translate(-7 -145.9)"/><path class="cls-1" d="M83.9,182.9a4.2,4.2,0,0,0-8.4,0V203a4.2,4.2,0,0,0,8.4,0Z" transform="translate(-7 -145.9)"/><path class="cls-1" d="M106.8,194.4a4.12,4.12,0,0,0-4.1-4.1,4.21,4.21,0,0,0-4.2,4.1v8.7a4.23,4.23,0,0,0,4.2,4.2,4.14,4.14,0,0,0,4.1-4.2Z" transform="translate(-7 -145.9)"/><path class="cls-1" d="M129.6,182.9a4.2,4.2,0,1,0-8.4,0V203a4.2,4.2,0,1,0,8.4,0Z" transform="translate(-7 -145.9)"/><path class="cls-1" d="M152.5,167.4a4.14,4.14,0,0,0-4.2-4.1,4.21,4.21,0,0,0-4.2,4.1v44a4.2,4.2,0,1,0,8.4,0Z" transform="translate(-7 -145.9)"/><path class="cls-1" d="M175.4,182.9a4.2,4.2,0,0,0-8.4,0V203a4.2,4.2,0,1,0,8.4,0Z" transform="translate(-7 -145.9)"/><path class="cls-1" d="M198.2,194.4a4.14,4.14,0,0,0-4.2-4.1,4.21,4.21,0,0,0-4.2,4.1v8.7a4.2,4.2,0,0,0,8.4,0Z" transform="translate(-7 -145.9)"/><line class="cls-2" x1="224" x2="224" y2="139.4"/><g class="cls-3"><path class="cls-1" d="M287.4,226.5h-4.2l-3.6-9.3h-17l-3.7,9.3H255l14-34.6h4.4Zm-16.2-30.9L263.9,214h14.5Z" transform="translate(-7 -145.9)"/></g><g class="cls-3"><path class="cls-1" d="M307.8,219.3h2.1a9.13,9.13,0,0,1-3.7,6,10.74,10.74,0,0,1-6.4,1.9,9.79,9.79,0,0,1-8.1-3.7c-1.9-2.3-2.8-5.4-2.8-9.3q0-6.9,3.6-10.5a10.19,10.19,0,0,1,7.3-2.9,10.44,10.44,0,0,1,6.9,2.3,8.62,8.62,0,0,1,3,5.2h-2.2a6.34,6.34,0,0,0-2.8-4.4,8.48,8.48,0,0,0-4.8-1.4,7.89,7.89,0,0,0-6.7,3.3,14.29,14.29,0,0,0-2.3,8.5c0,3.9,1,6.8,3,8.8a8.14,8.14,0,0,0,6,2.4,8.34,8.34,0,0,0,5.6-2A7.29,7.29,0,0,0,307.8,219.3Z" transform="translate(-7 -145.9)"/><path class="cls-1" d="M333.5,219.3h2.1a9.13,9.13,0,0,1-3.7,6,10.74,10.74,0,0,1-6.4,1.9,9.79,9.79,0,0,1-8.1-3.7c-1.9-2.3-2.8-5.4-2.8-9.3q0-6.9,3.6-10.5a10.19,10.19,0,0,1,7.3-2.9,10.44,10.44,0,0,1,6.9,2.3,8.62,8.62,0,0,1,3,5.2h-2.2a6.34,6.34,0,0,0-2.8-4.4,8.48,8.48,0,0,0-4.8-1.4,7.89,7.89,0,0,0-6.7,3.3,14.29,14.29,0,0,0-2.3,8.5c0,3.9,1,6.8,3,8.8a8.14,8.14,0,0,0,6,2.4,8.34,8.34,0,0,0,5.6-2A7.29,7.29,0,0,0,333.5,219.3Z" transform="translate(-7 -145.9)"/><path class="cls-1" d="M351.6,200.8a10.06,10.06,0,0,1,8.4,3.8c1.9,2.3,2.8,5.5,2.8,9.4,0,4.5-1.2,7.9-3.6,10.3a10.1,10.1,0,0,1-7.5,2.9,10.52,10.52,0,0,1-8.5-3.8,14.65,14.65,0,0,1-2.9-9.4c0-4.5,1.2-8,3.6-10.3A10.56,10.56,0,0,1,351.6,200.8Zm0,1.6a8,8,0,0,0-6.9,3.3,13.63,13.63,0,0,0-2.3,8.3q0,5.85,3,9a8.14,8.14,0,0,0,6.2,2.5,8.32,8.32,0,0,0,7-3.3,13.63,13.63,0,0,0,2.3-8.3c0-4-1-7-2.9-9.1A9.26,9.26,0,0,0,351.6,202.4Z" transform="translate(-7 -145.9)"/><path class="cls-1" d="M368.7,201.5h2v17a6.94,6.94,0,0,0,2.1,5.5,7.94,7.94,0,0,0,10.7-1.3,9.15,9.15,0,0,0,2-5.9V201.4h2v25h-1.7l-.2-4.3a8.62,8.62,0,0,1-4,4,9.26,9.26,0,0,1-4.4,1.1,8.6,8.6,0,0,1-6.4-2.4,8.7,8.7,0,0,1-2.1-6.1V201.5Z" transform="translate(-7 -145.9)"/><path class="cls-1" d="M397.1,226.5h-2v-25h1.7l.2,4.6a8.91,8.91,0,0,1,3.8-4.1,9.39,9.39,0,0,1,4.7-1.2,8.06,8.06,0,0,1,8.6,8.5v17.2h-2V209.4a6.64,6.64,0,0,0-2.1-5.3,6.9,6.9,0,0,0-4.9-1.6,7.62,7.62,0,0,0-5.7,2.6,8.4,8.4,0,0,0-2.3,5.9v15.5Z" transform="translate(-7 -145.9)"/><path class="cls-1" d="M430.3,203.2h-5.9v18.5c0,2.5,1.2,3.7,3.5,3.7a9.48,9.48,0,0,0,3-.4v1.7a11.48,11.48,0,0,1-3.1.4,5.29,5.29,0,0,1-4.1-1.5,5.58,5.58,0,0,1-1.3-3.9V203.2h-3.6v-1.7h3.6l.2-6h1.8v6h5.9Z" transform="translate(-7 -145.9)"/></g><g class="cls-3"><path class="cls-1" d="M469,226.5h-3.7l-11.6-29.1v29.1H450V191.9h5.3l11.9,30.3,11.2-30.3h5.1v34.6h-3.6V197.7Z" transform="translate(-7 -145.9)"/></g><g class="cls-3"><path class="cls-1" d="M492.4,207.8h-2a7,7,0,0,1,3.2-5.3,11,11,0,0,1,6.2-1.7,9.41,9.41,0,0,1,6.8,2.4,7.31,7.31,0,0,1,2.2,5.6v17.6h-1.6l-.3-4.4a9.85,9.85,0,0,1-3.6,3.7,10.79,10.79,0,0,1-5.4,1.3,8.53,8.53,0,0,1-6.1-2.1,6.21,6.21,0,0,1-2.1-4.9,6.38,6.38,0,0,1,2.5-5.4c1.5-1.2,3.9-2,7.2-2.6l7.5-1.2v-2.4a5.61,5.61,0,0,0-2.2-4.7,7.51,7.51,0,0,0-4.9-1.4,8,8,0,0,0-5.3,1.7A5.65,5.65,0,0,0,492.4,207.8Zm14.4,4.8-6.9,1.2c-3.3.5-5.5,1.4-6.8,2.5a5.31,5.31,0,0,0,.7,8,8.06,8.06,0,0,0,4.6,1.2,8.3,8.3,0,0,0,6-2.4,7.41,7.41,0,0,0,2.3-5.4v-5.1Z" transform="translate(-7 -145.9)"/><path class="cls-1" d="M518.2,226.5h-2v-25h1.7l.2,4.6a8.91,8.91,0,0,1,3.8-4.1,9.39,9.39,0,0,1,4.7-1.2,8.06,8.06,0,0,1,8.6,8.5v17.2h-2V209.4a6.64,6.64,0,0,0-2.1-5.3,6.9,6.9,0,0,0-4.9-1.6,7.62,7.62,0,0,0-5.7,2.6,8.4,8.4,0,0,0-2.3,5.9Z" transform="translate(-7 -145.9)"/><path class="cls-1" d="M543.9,207.8h-2a7,7,0,0,1,3.2-5.3,11,11,0,0,1,6.2-1.7,9.41,9.41,0,0,1,6.8,2.4,7.31,7.31,0,0,1,2.2,5.6v17.6h-1.6l-.3-4.4a9.85,9.85,0,0,1-3.6,3.7,10.79,10.79,0,0,1-5.4,1.3,8.53,8.53,0,0,1-6.1-2.1,6.21,6.21,0,0,1-2.1-4.9,6.38,6.38,0,0,1,2.5-5.4c1.5-1.2,3.9-2,7.2-2.6l7.5-1.2v-2.4a5.61,5.61,0,0,0-2.2-4.7,7.51,7.51,0,0,0-4.9-1.4A8,8,0,0,0,546,204,5.28,5.28,0,0,0,543.9,207.8Zm14.4,4.8-6.9,1.2c-3.3.5-5.5,1.4-6.8,2.5a5.31,5.31,0,0,0,.7,8,8.06,8.06,0,0,0,4.6,1.2,8.3,8.3,0,0,0,6-2.4,7.41,7.41,0,0,0,2.3-5.4v-5.1Z" transform="translate(-7 -145.9)"/><path class="cls-1" d="M567.3,228.9h2.1a5.55,5.55,0,0,0,3,4.1,10.43,10.43,0,0,0,4.9,1.1,8.21,8.21,0,0,0,6.3-2.4,7.59,7.59,0,0,0,1.9-5.4v-6.1a9.3,9.3,0,0,1-3.7,3.9,9.69,9.69,0,0,1-5.1,1.3,9.83,9.83,0,0,1-7.7-3.5,12.72,12.72,0,0,1-2.8-8.6c0-4.2,1.2-7.4,3.5-9.7a9.42,9.42,0,0,1,7-2.8,10.31,10.31,0,0,1,5.7,1.7,9.58,9.58,0,0,1,3.2,3.7l.3-4.7h1.6v24.9a9.14,9.14,0,0,1-3,7.1,10.52,10.52,0,0,1-7.1,2.4,11.94,11.94,0,0,1-7.1-2A8.14,8.14,0,0,1,567.3,228.9Zm9.7-26.4a7.93,7.93,0,0,0-6.5,3,12.28,12.28,0,0,0-2.3,7.8c0,3.6,1,6.3,2.9,8.2a7.91,7.91,0,0,0,5.9,2.4,7.75,7.75,0,0,0,6.3-2.7c1.6-1.8,2.4-4.5,2.4-8,0-3.8-.9-6.6-2.8-8.5A8,8,0,0,0,577,202.5Z" transform="translate(-7 -145.9)"/><path class="cls-1" d="M613.4,219.8h2.1a9.21,9.21,0,0,1-4,5.6,10.77,10.77,0,0,1-6.2,1.8,10.9,10.9,0,0,1-8.8-3.9c-2-2.3-2.9-5.4-2.9-9.3q0-6.6,3.6-10.2a10.92,10.92,0,0,1,15.8.8c1.9,2.4,2.9,5.7,2.9,9.9H595.5c.1,3.8,1.2,6.7,3.4,8.7a9.29,9.29,0,0,0,6.4,2.3,8.91,8.91,0,0,0,5.4-1.7A6.88,6.88,0,0,0,613.4,219.8Zm-17.7-7h18.2c-.2-3.6-1.2-6.3-3.2-8.1a8.23,8.23,0,0,0-5.9-2.3,7.93,7.93,0,0,0-6.5,3A12.21,12.21,0,0,0,595.7,212.8Z" transform="translate(-7 -145.9)"/><path class="cls-1" d="M624.4,226.5h-2v-25h1.7l.2,4.2a8.79,8.79,0,0,1,12.8-3.4,6.36,6.36,0,0,1,2.4,3.7,8.43,8.43,0,0,1,3.8-4.1,9.26,9.26,0,0,1,4.4-1.1c2.7,0,4.7.8,6.1,2.5a9,9,0,0,1,1.8,5.9v17.3h-2V209.3c0-4.5-2.1-6.8-6.3-6.8a6.44,6.44,0,0,0-5.5,2.8A9.23,9.23,0,0,0,640,211v15.5h-2V209.3c0-4.5-2.1-6.8-6.2-6.8a6.91,6.91,0,0,0-5.6,2.7,9.23,9.23,0,0,0-1.8,5.7Z" transform="translate(-7 -145.9)"/><path class="cls-1" d="M681.3,219.8h2.1a9.21,9.21,0,0,1-4,5.6,10.77,10.77,0,0,1-6.2,1.8,10.9,10.9,0,0,1-8.8-3.9c-2-2.3-2.9-5.4-2.9-9.3q0-6.6,3.6-10.2a10.92,10.92,0,0,1,15.8.8c1.9,2.4,2.9,5.7,2.9,9.9H663.4c.1,3.8,1.2,6.7,3.4,8.7a9.29,9.29,0,0,0,6.4,2.3,8.91,8.91,0,0,0,5.4-1.7A6.88,6.88,0,0,0,681.3,219.8Zm-17.7-7h18.2c-.2-3.6-1.2-6.3-3.2-8.1a8.23,8.23,0,0,0-5.9-2.3,7.93,7.93,0,0,0-6.5,3A12.88,12.88,0,0,0,663.6,212.8Z" transform="translate(-7 -145.9)"/><path class="cls-1" d="M692.3,226.5h-2v-25H692l.2,4.6A8.91,8.91,0,0,1,696,202a9.39,9.39,0,0,1,4.7-1.2,8.06,8.06,0,0,1,8.6,8.5v17.2h-2V209.4a6.64,6.64,0,0,0-2.1-5.3,6.9,6.9,0,0,0-4.9-1.6,7.62,7.62,0,0,0-5.7,2.6,8.4,8.4,0,0,0-2.3,5.9Z" transform="translate(-7 -145.9)"/><path class="cls-1" d="M725.6,203.2h-5.9v18.5c0,2.5,1.2,3.7,3.5,3.7a9.48,9.48,0,0,0,3-.4v1.7a11.48,11.48,0,0,1-3.1.4,5.29,5.29,0,0,1-4.1-1.5,5.58,5.58,0,0,1-1.3-3.9V203.2H714v-1.7h3.6l.2-6h1.8v6h5.9v1.7Z" transform="translate(-7 -145.9)"/></g></svg>