<?xml version="1.0" standalone="no"?>
<!DOCTYPE svg PUBLIC "-//W3C//DTD SVG 20010904//EN"
 "http://www.w3.org/TR/2001/REC-SVG-20010904/DTD/svg10.dtd">
<svg version="1.0" xmlns="http://www.w3.org/2000/svg"
 viewBox="0 0 256.000000 256.000000"
 preserveAspectRatio="xMidYMid meet">

<g transform="translate(0.000000,256.000000) scale(0.100000,-0.100000)"
fill="#000000" stroke="none">
<path d="M1237 2545 c-166 -35 -364 -123 -543 -241 -97 -64 -138 -108 -175
-189 -18 -40 -37 -66 -58 -77 -41 -23 -87 -108 -102 -189 -7 -41 -10 -112 -7
-179 5 -107 4 -115 -20 -163 -53 -102 -27 -310 53 -423 39 -54 115 -111 161
-120 32 -6 44 -24 44 -68 0 -11 20 -61 45 -113 35 -70 44 -97 36 -110 -5 -10
-44 -38 -88 -62 -43 -24 -141 -83 -218 -131 -77 -48 -159 -97 -182 -109 -92
-46 -94 -97 -11 -318 l19 -53 1067 0 1067 0 53 173 c64 206 70 243 48 285 -9
17 -74 83 -146 147 -102 91 -130 122 -130 141 0 14 15 53 34 87 48 87 80 184
110 328 81 395 42 806 -95 1006 -53 77 -197 220 -268 267 -70 46 -139 75 -236
101 -85 23 -367 29 -458 10z m428 -115 c108 -29 230 -88 288 -140 26 -23 75
-75 108 -116 l60 -74 -41 0 c-66 0 -119 -39 -120 -87 0 -25 10 -29 28 -11 23
23 109 13 160 -19 70 -43 99 -108 112 -254 34 -389 -25 -675 -193 -931 -72
-111 -114 -149 -222 -203 -118 -59 -199 -79 -295 -72 -170 12 -323 114 -477
320 -36 48 -67 86 -69 85 -8 -9 17 -82 41 -124 31 -52 170 -202 226 -243 l35
-26 -49 -2 c-33 -1 -59 -8 -78 -22 -28 -21 -33 -21 -117 -10 -169 22 -228 61
-295 196 -39 76 -81 197 -91 259 -7 37 -4 46 23 77 18 20 31 46 31 61 0 24 -3
26 -22 20 -13 -3 -34 -14 -48 -24 -40 -27 -60 -31 -101 -20 -113 31 -199 207
-163 331 27 92 135 152 214 119 39 -16 48 -29 75 -103 l23 -62 44 3 c23 2 54
10 67 18 26 18 26 35 -4 175 -15 71 -15 84 -1 165 39 218 40 231 27 298 -15
73 -12 83 51 159 78 93 302 239 418 272 76 21 249 14 355 -15z m-625 -59 c0
-10 -16 -20 -117 -69 -74 -36 -152 -94 -212 -156 -41 -42 -105 -76 -118 -62
-18 18 102 139 191 193 117 72 256 122 256 94z m-270 -335 c0 -2 2 -11 6 -19
4 -10 -6 -16 -38 -21 -105 -17 -202 -85 -244 -173 -24 -48 -28 -69 -29 -145 0
-48 -3 -88 -6 -88 -14 0 -20 138 -9 200 14 77 28 105 72 146 51 46 63 54 125
80 50 20 123 32 123 20z m206 -1575 c16 -5 59 -12 95 -16 l67 -6 -8 -35 c-5
-20 -10 -37 -12 -39 -6 -6 -133 39 -161 58 -15 10 -27 24 -27 32 0 17 7 18 46
6z m779 -26 c-34 -30 -47 -34 -93 -35 -34 0 -67 7 -92 20 -22 11 -40 21 -40
23 0 1 24 1 52 -1 29 -2 82 4 118 11 95 22 99 20 55 -18z m40 -280 c22 -14 48
-25 58 -25 17 0 22 -16 11 -44 -8 -20 -60 -21 -80 -1 -15 14 -44 11 -44 -6 0
-5 -20 -9 -44 -9 -38 0 -48 4 -66 30 -26 36 -15 60 29 61 14 0 35 4 46 9 32
14 47 11 90 -15z"/>
<path d="M1261 2057 c-49 -16 -137 -100 -156 -151 -32 -84 5 -135 40 -56 37
82 128 138 206 127 44 -6 54 3 45 39 -4 16 -19 30 -41 40 -39 16 -47 16 -94 1z"/>
<path d="M2130 1774 c0 -22 9 -67 20 -99 11 -32 18 -60 16 -62 -2 -3 -24 -7
-48 -9 -75 -9 -88 -14 -88 -33 0 -51 91 -68 159 -30 63 35 63 42 -1 164 -56
108 -57 109 -58 69z"/>
<path d="M1460 1777 c0 -32 35 -131 60 -173 l21 -33 -26 -7 c-14 -4 -57 -3
-94 0 -59 6 -69 5 -75 -10 -27 -71 153 -112 227 -51 43 36 44 67 2 117 -20 24
-52 75 -71 112 -19 37 -36 68 -39 68 -3 0 -5 -11 -5 -23z"/>
<path d="M1795 1693 c13 -91 73 -196 194 -338 42 -48 51 -66 51 -97 0 -37 -2
-39 -68 -72 -126 -63 -225 -82 -255 -48 -10 10 -17 21 -17 25 0 3 -5 18 -11
34 -8 22 -12 24 -19 13 -16 -24 -11 -90 8 -122 l17 -30 77 5 c89 7 206 49 284
101 45 31 52 40 64 90 l13 55 -67 72 c-93 97 -183 221 -218 297 -36 78 -63 86
-53 15z"/>
<path d="M485 1435 c-14 -13 -25 -34 -25 -46 0 -21 1 -21 18 -6 29 26 44 22
35 -10 -11 -40 -7 -113 8 -148 12 -29 13 -28 21 45 5 41 14 80 20 87 16 20 36
15 53 -12 50 -83 47 -79 57 -61 12 21 1 72 -24 114 -38 63 -119 82 -163 37z"/>
<path d="M2066 1075 c-49 -23 -105 -46 -126 -49 -41 -6 -52 -29 -42 -82 4 -25
7 -26 49 -20 57 8 91 26 140 77 41 42 91 120 76 118 -4 0 -48 -20 -97 -44z"/>
<path d="M1469 1042 c37 -69 157 -120 309 -129 l92 -6 0 29 c0 71 0 71 -130
79 -107 6 -191 19 -259 40 -21 7 -22 6 -12 -13z"/>
<path d="M1405 960 c-6 -9 42 -74 110 -148 16 -19 46 -40 65 -48 43 -18 197
-21 255 -6 39 11 85 44 85 61 0 5 -66 11 -147 14 -82 3 -164 10 -184 16 -51
16 -100 51 -124 88 -20 32 -48 42 -60 23z"/>
</g>
</svg>
